<svg data-v-423bf9ae="" xmlns="http://www.w3.org/2000/svg" viewBox="0 0 485 90" class="iconLeftSlogan"><!----><!----><!----><g data-v-423bf9ae="" id="11d3c118-97bf-4a2b-8e48-dd5eea1eb9ce" fill="#8C52FF" transform="matrix(5.769230980844901,0,0,5.769230980844901,102.50001115594395,-9.5367431640625e-7)"><path d="M3.12 10.26L3.12 9.95L2.07 9.60L2.07 0L1.30 0L1.30 10.26ZM10.07 7C10.07 4.79 8.90 3.58 7.13 3.58C5.35 3.58 4.14 4.79 4.14 7C4.14 9.28 5.49 10.40 7.59 10.40C8.18 10.40 9.02 10.26 9.55 10.08L9.55 9.38C9.02 9.56 8.18 9.70 7.59 9.70C6.03 9.70 5.03 8.96 4.94 7.22L10.07 7.22C10.07 7.15 10.07 7.07 10.07 7ZM9.30 6.55L4.96 6.55C5.10 5.07 5.92 4.28 7.13 4.28C8.26 4.28 9.16 5.07 9.30 6.55ZM17.35 7C17.35 4.79 16.14 3.58 14.36 3.58C13.87 3.58 13.26 3.67 12.80 3.82L12.80 0L12.03 0L12.03 10.02C12.70 10.22 13.65 10.40 14.36 10.40C16.14 10.40 17.35 9.20 17.35 7ZM16.56 7C16.56 8.76 15.68 9.70 14.36 9.70C13.85 9.70 13.31 9.62 12.80 9.48L12.80 4.51C13.31 4.37 13.85 4.28 14.36 4.28C15.68 4.28 16.56 5.22 16.56 7ZM24.85 10.26L24.85 9.56C24.65 9.63 24.43 9.70 24.19 9.70C23.87 9.70 23.73 9.52 23.73 9.23L23.73 5.96C23.73 4.41 22.79 3.58 21.11 3.58C20.61 3.58 19.92 3.71 19.33 3.89L19.33 5.46L19.64 5.46L19.99 4.42C20.38 4.34 20.79 4.28 21.11 4.28C22.37 4.28 22.96 4.82 22.96 5.96L22.96 6.55L20.94 6.55C19.39 6.55 18.66 7.32 18.66 8.34C18.66 9.53 19.60 10.40 21.39 10.40C22.04 10.40 22.67 10.26 23.20 10.04C23.38 10.28 23.70 10.40 23.98 10.40C24.30 10.40 24.61 10.33 24.85 10.26ZM22.96 9.41C22.50 9.59 21.97 9.72 21.39 9.72C20.09 9.72 19.45 9.18 19.45 8.34C19.45 7.67 19.88 7.22 20.94 7.22L22.96 7.22ZM36.90 10.26L36.90 9.95L35.87 9.60L35.87 5.96C35.87 4.41 34.93 3.58 33.25 3.58C32.76 3.58 32.14 3.67 31.68 3.82L31.68 0L30.91 0L30.91 10.26L31.68 10.26L31.68 4.51C32.20 4.37 32.73 4.28 33.25 4.28C34.51 4.28 35.10 4.82 35.10 5.96L35.10 10.26ZM43.90 7C43.90 4.79 42.70 3.58 40.92 3.58C39.14 3.58 37.94 4.79 37.94 7C37.94 9.20 39.14 10.40 40.92 10.40C42.70 10.40 43.90 9.20 43.90 7ZM43.12 7C43.12 8.76 42.24 9.70 40.92 9.70C39.61 9.70 38.72 8.76 38.72 7C38.72 5.22 39.61 4.28 40.92 4.28C42.24 4.28 43.12 5.22 43.12 7ZM50.12 8.48C50.12 7.28 49.22 6.57 47.68 6.57C46.56 6.57 46.10 6.10 46.10 5.39C46.10 4.86 46.52 4.28 47.92 4.28C48.41 4.28 48.89 4.35 49.34 4.47L49.67 5.46L49.98 5.46L49.98 3.95C49.36 3.75 48.65 3.58 47.92 3.58C46.05 3.58 45.30 4.48 45.30 5.42C45.30 6.58 46.20 7.31 47.68 7.31C48.86 7.31 49.32 7.77 49.32 8.51C49.32 9.11 48.89 9.70 47.40 9.70C46.68 9.70 46.00 9.58 45.26 9.32L45.26 10.02C46.00 10.28 46.68 10.40 47.40 10.40C49.36 10.40 50.12 9.52 50.12 8.48ZM55.41 10.29L55.41 9.59C55.22 9.66 54.91 9.70 54.71 9.70C53.59 9.70 53.21 9.24 53.21 8.26L53.21 4.41L55.41 4.41L55.41 3.72L53.21 3.72L53.21 1.82L52.44 1.93L52.44 3.72L51.04 3.72L51.04 4.41L52.44 4.41L52.44 8.26C52.44 9.63 53.17 10.40 54.71 10.40C54.91 10.40 55.22 10.36 55.41 10.29ZM62.47 7C62.47 4.79 61.31 3.58 59.53 3.58C57.75 3.58 56.55 4.79 56.55 7C56.55 9.28 57.89 10.40 59.99 10.40C60.58 10.40 61.42 10.26 61.95 10.08L61.95 9.38C61.42 9.56 60.58 9.70 59.99 9.70C58.44 9.70 57.43 8.96 57.34 7.22L62.47 7.22C62.47 7.15 62.47 7.07 62.47 7ZM61.70 6.55L57.36 6.55C57.50 5.07 58.32 4.28 59.53 4.28C60.66 4.28 61.56 5.07 61.70 6.55ZM66.25 10.26L66.25 9.95L65.20 9.60L65.20 0L64.43 0L64.43 10.26Z"></path></g><!----><g data-v-423bf9ae="" id="519248bc-a213-4a4c-ab1d-a5bee2d3cd95" transform="matrix(5.624886678952128,0,0,5.624886678952128,9.5367431640625e-7,9.5367431640625e-7)" stroke="none" fill="#47E18E"><circle cx="4.5" cy="4.5" r="1.5"></circle><path d="M2 4.5a.5.5 0 00-.5-.5h-1a.5.5 0 000 1h1a.5.5 0 00.5-.5zM7 4.5a.5.5 0 00.5.5h1a.5.5 0 000-1h-1a.5.5 0 00-.5.5zM4 7.5v1a.5.5 0 001 0v-1a.5.5 0 00-1 0zM4.5 2a.5.5 0 00.5-.5v-1a.5.5 0 00-1 0v1a.5.5 0 00.5.5zM2.025 6.268l-.707.707a.5.5 0 00.707.707l.708-.708a.5.5 0 10-.708-.706zM6.621 2.879a.502.502 0 00.354-.146l.708-.708a.5.5 0 00-.707-.707l-.708.707a.5.5 0 00.353.854zM6.975 7.682a.5.5 0 10.707-.707l-.707-.707a.5.5 0 00-.707.707l.707.707zM2.025 2.732a.5.5 0 10.707-.707l-.707-.707a.5.5 0 00-.707.707l.707.707zM12.953 6.586l2.046 1.367c.044-2.052-.395-3.651-1.527-3.956-.393-.106-.809-.035-1.239.212-.717.413-1.454 1.332-2.122 2.576l2.498-.283a.507.507 0 01.344.084zM15.764 15.075a13.935 13.935 0 00-1.953-1.006c.174-.492.339-1.003.493-1.571.303-1.135.518-2.296.624-3.383l-2.391-1.598-2.944.334a21.231 21.231 0 00-1.087 3.102A25.75 25.75 0 008.064 13a13.741 13.741 0 00-6.828 2.075.5.5 0 00.528.85 12.667 12.667 0 0113.472 0 .5.5 0 00.528-.85z"></path></g><!----><g data-v-423bf9ae="" id="6dca4927-8659-4d3c-8dc9-e3a58cb95ec8" fill="#8C52FF" transform="matrix(1.133643066152533,0,0,1.133643066152533,109.61456421641671,55.88487710719905)"><path d="M8.83 3.92L8.76 3.92L8.20 3.92L8.09 3.92L6.69 3.92L6.69 4.19C6.69 4.34 6.79 4.42 6.97 4.44L7.08 4.44C7.14 4.44 7.21 4.45 7.32 4.45C7.43 4.45 7.56 4.47 7.70 4.47L5.11 8.64C5.04 8.75 4.98 8.85 4.94 8.95C4.90 9.04 4.86 9.16 4.82 9.25C4.77 9.16 4.73 9.04 4.69 8.95C4.65 8.85 4.59 8.75 4.52 8.64L1.92 4.47C2.06 4.47 2.18 4.45 2.30 4.45C2.41 4.45 2.49 4.44 2.55 4.44L2.65 4.44C2.83 4.42 2.93 4.34 2.93 4.19L2.93 3.92L1.53 3.92L1.41 3.92L0.85 3.92L0.78 3.92L0.34 3.92L0.34 4.19C0.34 4.34 0.43 4.42 0.62 4.44C0.85 4.45 1.04 4.47 1.13 4.47L4.45 9.73L4.45 13.26C4.28 13.26 4.13 13.27 3.99 13.27C3.85 13.27 3.75 13.29 3.68 13.29L3.56 13.29C3.37 13.30 3.28 13.38 3.28 13.54L3.28 13.82L4.45 13.82L5.17 13.82L6.34 13.82L6.34 13.54C6.34 13.38 6.26 13.30 6.08 13.29L5.94 13.29C5.87 13.29 5.77 13.27 5.63 13.27C5.49 13.27 5.33 13.26 5.17 13.26L5.17 9.73L8.48 4.47C8.60 4.47 8.76 4.45 9.00 4.44C9.18 4.42 9.28 4.34 9.28 4.19L9.28 3.92ZM20.34 6.73C19.84 6.73 19.39 6.83 19.00 7.00C18.61 7.17 18.27 7.41 17.99 7.71C17.71 8.02 17.51 8.40 17.37 8.85C17.23 9.30 17.15 9.79 17.15 10.33C17.15 10.88 17.23 11.37 17.37 11.80C17.51 12.24 17.71 12.63 17.99 12.94C18.27 13.24 18.61 13.48 19.00 13.65C19.39 13.82 19.84 13.90 20.34 13.90C20.85 13.90 21.28 13.82 21.67 13.65C22.06 13.48 22.40 13.24 22.67 12.94C22.93 12.63 23.16 12.24 23.30 11.80C23.44 11.37 23.51 10.88 23.51 10.33C23.51 9.79 23.44 9.30 23.30 8.85C23.16 8.40 22.93 8.02 22.67 7.71C22.40 7.41 22.06 7.17 21.67 7.00C21.28 6.83 20.85 6.73 20.34 6.73ZM20.34 13.38C19.92 13.38 19.56 13.31 19.25 13.17C18.94 13.03 18.68 12.82 18.47 12.56C18.26 12.29 18.12 11.97 18.00 11.59C17.89 11.21 17.85 10.79 17.85 10.33C17.85 9.87 17.89 9.45 18.00 9.07C18.12 8.69 18.26 8.37 18.47 8.11C18.68 7.84 18.94 7.62 19.25 7.48C19.56 7.34 19.92 7.27 20.34 7.27C20.76 7.27 21.11 7.34 21.42 7.48C21.73 7.62 21.99 7.84 22.20 8.11C22.41 8.37 22.57 8.69 22.67 9.07C22.76 9.45 22.82 9.87 22.82 10.33C22.82 10.79 22.76 11.21 22.67 11.59C22.57 11.97 22.41 12.29 22.20 12.56C21.99 12.82 21.73 13.03 21.42 13.17C21.11 13.31 20.76 13.38 20.34 13.38ZM38.54 13.29L38.47 13.29L38.36 13.29C38.32 13.29 38.25 13.27 38.15 13.27C38.05 13.27 37.94 13.26 37.81 13.26L37.81 6.85L37.14 6.86L36.13 6.86L36.13 7.13C36.13 7.28 36.23 7.36 36.41 7.38L36.48 7.38C36.51 7.38 36.55 7.39 36.60 7.39L36.81 7.39C36.90 7.39 37.02 7.41 37.14 7.41L37.14 12.08C36.83 12.49 36.47 12.81 36.08 13.05C35.69 13.27 35.27 13.40 34.82 13.40C34.20 13.40 33.74 13.20 33.45 12.84C33.15 12.46 33.00 11.96 33.00 11.30L33.00 6.85L32.33 6.86L31.32 6.86L31.32 7.13C31.32 7.28 31.42 7.36 31.60 7.38L31.67 7.38C31.70 7.38 31.74 7.39 31.78 7.39L31.99 7.39C32.09 7.39 32.20 7.41 32.33 7.41L32.33 11.30C32.33 11.70 32.38 12.07 32.48 12.39C32.58 12.71 32.72 12.99 32.91 13.22C33.11 13.44 33.33 13.62 33.63 13.75C33.92 13.87 34.26 13.93 34.65 13.93C35.17 13.93 35.64 13.80 36.06 13.57C36.48 13.33 36.86 13.01 37.18 12.60L37.24 13.64C37.24 13.76 37.32 13.82 37.45 13.82L37.81 13.82L38.82 13.82L38.82 13.54C38.82 13.38 38.72 13.30 38.54 13.29ZM51.63 6.80C51.45 6.76 51.27 6.73 51.06 6.73C50.51 6.73 50.05 6.89 49.67 7.21C49.29 7.53 49 7.98 48.78 8.54L48.72 7.07C48.72 6.99 48.69 6.93 48.66 6.90C48.64 6.87 48.58 6.86 48.50 6.86L48.15 6.86L48.15 6.86L47.14 6.86L47.14 7.13C47.14 7.31 47.24 7.36 47.40 7.38C47.49 7.38 47.57 7.38 48.15 7.41L48.15 13.26C47.57 13.29 47.49 13.29 47.40 13.29C47.24 13.30 47.14 13.36 47.14 13.54L47.14 13.82L48.15 13.82L48.80 13.82L48.80 13.82L49.81 13.82L49.81 13.54C49.81 13.36 49.71 13.30 49.55 13.29C49.46 13.29 49.38 13.29 48.80 13.26L48.80 9.30C49.01 8.68 49.29 8.20 49.63 7.88C49.97 7.56 50.40 7.39 50.93 7.39C51.07 7.39 51.20 7.41 51.31 7.42C51.42 7.43 51.53 7.45 51.60 7.48C51.69 7.50 51.73 7.53 51.79 7.55C51.84 7.56 51.88 7.57 51.91 7.57C52.00 7.57 52.04 7.53 52.05 7.46L52.14 7.00C51.98 6.92 51.81 6.85 51.63 6.80ZM76.31 7.63C75.84 7.04 75.17 6.73 74.31 6.73C73.81 6.73 73.35 6.86 72.94 7.10C72.53 7.34 72.18 7.66 71.88 8.06L71.86 3.63L71.20 3.63L70.20 3.63L70.20 3.91C70.20 4.06 70.28 4.14 70.46 4.16L70.55 4.16C70.57 4.16 70.60 4.17 70.64 4.17L70.85 4.17C70.95 4.17 71.08 4.19 71.20 4.19L71.20 13.16L71.20 13.51C72.44 13.78 73.36 13.90 73.99 13.90C74.48 13.90 74.91 13.80 75.29 13.62C75.67 13.44 75.98 13.19 76.24 12.87C76.51 12.54 76.69 12.15 76.83 11.72C76.97 11.28 77.03 10.79 77.03 10.29C77.03 9.10 76.79 8.22 76.31 7.63ZM76.19 11.55C76.08 11.93 75.92 12.26 75.71 12.53C75.50 12.81 75.25 13.01 74.94 13.16C74.63 13.31 74.27 13.38 73.86 13.38C73.50 13.38 72.83 13.29 71.86 13.09L71.86 8.62C72.16 8.20 72.49 7.87 72.87 7.63C73.25 7.39 73.65 7.27 74.12 7.27C74.83 7.27 75.39 7.52 75.77 8.01C76.15 8.50 76.34 9.25 76.34 10.29C76.34 10.75 76.30 11.17 76.19 11.55ZM88.44 6.73C87.95 6.73 87.50 6.83 87.11 7.00C86.72 7.17 86.39 7.41 86.13 7.71C85.86 8.02 85.65 8.39 85.51 8.81C85.37 9.23 85.29 9.69 85.29 10.19C85.29 10.78 85.37 11.31 85.53 11.77C85.68 12.24 85.89 12.61 86.17 12.94C86.45 13.26 86.79 13.50 87.18 13.66C87.57 13.83 88.00 13.90 88.48 13.90C88.75 13.90 89.01 13.89 89.26 13.83C89.52 13.78 89.77 13.71 89.99 13.62C90.22 13.54 90.43 13.44 90.61 13.31C90.79 13.19 90.94 13.06 91.06 12.92L90.87 12.70C90.85 12.66 90.79 12.63 90.73 12.63C90.69 12.63 90.61 12.66 90.51 12.74C90.41 12.82 90.27 12.91 90.09 13.01C89.92 13.10 89.70 13.17 89.45 13.26C89.19 13.34 88.89 13.38 88.54 13.38C88.14 13.38 87.79 13.31 87.47 13.17C87.15 13.03 86.88 12.84 86.66 12.57C86.44 12.31 86.27 11.97 86.14 11.58C86.02 11.19 85.96 10.71 85.96 10.19L85.96 10.07L90.99 10.07C91.06 10.07 91.10 10.05 91.13 10.01C91.15 9.97 91.18 9.90 91.18 9.80C91.18 9.31 91.11 8.88 90.97 8.50C90.83 8.12 90.65 7.78 90.40 7.53C90.16 7.28 89.87 7.08 89.53 6.94C89.19 6.80 88.83 6.73 88.44 6.73ZM88.45 7.24C88.77 7.24 89.05 7.29 89.32 7.41C89.59 7.52 89.81 7.67 89.99 7.88C90.17 8.09 90.33 8.33 90.43 8.62C90.52 8.92 90.58 9.25 90.58 9.63L85.99 9.63C86.03 9.27 86.11 8.93 86.24 8.64C86.37 8.34 86.53 8.09 86.74 7.88C86.95 7.67 87.21 7.52 87.49 7.41C87.77 7.29 88.09 7.24 88.45 7.24ZM103.96 11.06C103.85 10.86 103.71 10.71 103.53 10.57C103.35 10.43 103.14 10.32 102.91 10.23C102.69 10.15 102.44 10.05 102.20 9.98C101.96 9.91 101.72 9.83 101.49 9.76C101.26 9.69 101.05 9.59 100.87 9.49C100.69 9.39 100.55 9.27 100.44 9.13C100.32 8.99 100.27 8.81 100.27 8.58C100.27 8.40 100.30 8.23 100.38 8.08C100.46 7.92 100.58 7.77 100.73 7.64C100.87 7.52 101.05 7.43 101.26 7.36C101.47 7.29 101.70 7.25 101.95 7.25C102.31 7.25 102.68 7.31 103.05 7.43C103.07 7.60 103.08 7.77 103.10 7.92C103.11 8.08 103.11 8.19 103.12 8.27C103.14 8.36 103.14 8.43 103.14 8.44C103.15 8.67 103.25 8.78 103.45 8.78L103.78 8.78L103.78 7.11C103.05 6.86 102.44 6.75 101.93 6.75C101.58 6.75 101.26 6.80 100.98 6.90C100.70 7.00 100.45 7.14 100.25 7.31C100.06 7.48 99.90 7.69 99.79 7.91C99.68 8.13 99.64 8.37 99.64 8.62C99.64 8.92 99.69 9.16 99.81 9.35C99.92 9.55 100.06 9.70 100.24 9.84C100.42 9.98 100.62 10.09 100.86 10.18C101.08 10.26 101.32 10.35 101.57 10.42C101.81 10.49 102.05 10.57 102.28 10.64C102.51 10.71 102.72 10.81 102.90 10.92C103.08 11.03 103.24 11.16 103.35 11.31C103.46 11.47 103.52 11.65 103.52 11.89C103.52 12.10 103.47 12.29 103.40 12.49C103.32 12.68 103.21 12.84 103.05 12.98C102.90 13.12 102.72 13.23 102.49 13.31C102.27 13.40 102.02 13.44 101.72 13.44C101.19 13.44 100.74 13.37 100.37 13.22C100.35 13.03 100.34 12.87 100.32 12.71C100.31 12.56 100.31 12.43 100.30 12.35C100.28 12.26 100.28 12.19 100.28 12.18C100.27 11.96 100.17 11.84 99.97 11.84L99.64 11.84L99.64 13.54C100.31 13.79 101.00 13.93 101.70 13.93C102.09 13.93 102.42 13.87 102.73 13.76C103.04 13.65 103.29 13.50 103.50 13.30C103.71 13.10 103.87 12.89 103.98 12.63C104.09 12.36 104.15 12.08 104.15 11.77C104.15 11.49 104.08 11.26 103.96 11.06ZM114.60 13.93C114.90 13.93 115.18 13.86 115.46 13.75C115.72 13.64 115.95 13.48 116.13 13.29L115.95 12.98C115.91 12.94 115.88 12.92 115.84 12.92C115.81 12.92 115.75 12.94 115.70 12.99C115.64 13.05 115.57 13.09 115.49 13.15C115.40 13.20 115.29 13.26 115.16 13.31C115.04 13.37 114.91 13.38 114.74 13.38C114.60 13.38 114.46 13.36 114.35 13.31C114.24 13.27 114.14 13.20 114.06 13.12C113.97 13.03 113.90 12.92 113.85 12.78C113.79 12.64 113.78 12.49 113.78 12.29L113.78 7.57L115.98 7.57L115.98 7.07L113.78 7.07L113.78 4.41L113.46 4.41C113.40 4.41 113.37 4.44 113.34 4.47C113.32 4.49 113.29 4.54 113.29 4.58L113.12 7.07L111.93 7.15L111.93 7.41C111.93 7.46 111.94 7.49 111.97 7.52C112 7.55 112.06 7.57 112.11 7.57L113.11 7.57L113.11 12.33C113.11 12.88 113.23 13.27 113.50 13.54C113.76 13.80 114.13 13.93 114.60 13.93ZM137.72 6.73C137.23 6.73 136.78 6.83 136.39 7.00C136.00 7.17 135.67 7.41 135.41 7.71C135.14 8.02 134.93 8.39 134.79 8.81C134.65 9.23 134.57 9.69 134.57 10.19C134.57 10.78 134.65 11.31 134.81 11.77C134.96 12.24 135.17 12.61 135.45 12.94C135.73 13.26 136.07 13.50 136.46 13.66C136.85 13.83 137.28 13.90 137.76 13.90C138.03 13.90 138.29 13.89 138.54 13.83C138.80 13.78 139.05 13.71 139.27 13.62C139.50 13.54 139.71 13.44 139.89 13.31C140.07 13.19 140.22 13.06 140.34 12.92L140.15 12.70C140.13 12.66 140.07 12.63 140.01 12.63C139.97 12.63 139.89 12.66 139.79 12.74C139.69 12.82 139.55 12.91 139.37 13.01C139.20 13.10 138.98 13.17 138.73 13.26C138.47 13.34 138.17 13.38 137.82 13.38C137.42 13.38 137.07 13.31 136.75 13.17C136.43 13.03 136.16 12.84 135.94 12.57C135.72 12.31 135.55 11.97 135.42 11.58C135.30 11.19 135.24 10.71 135.24 10.19L135.24 10.07L140.27 10.07C140.34 10.07 140.38 10.05 140.41 10.01C140.43 9.97 140.46 9.90 140.46 9.80C140.46 9.31 140.39 8.88 140.25 8.50C140.11 8.12 139.93 7.78 139.68 7.53C139.44 7.28 139.15 7.08 138.81 6.94C138.47 6.80 138.11 6.73 137.72 6.73ZM137.73 7.24C138.05 7.24 138.33 7.29 138.60 7.41C138.87 7.52 139.09 7.67 139.27 7.88C139.45 8.09 139.61 8.33 139.71 8.62C139.80 8.92 139.86 9.25 139.86 9.63L135.27 9.63C135.31 9.27 135.39 8.93 135.52 8.64C135.65 8.34 135.81 8.09 136.02 7.88C136.23 7.67 136.49 7.52 136.77 7.41C137.05 7.29 137.37 7.24 137.73 7.24ZM154.49 13.29C154.48 13.29 154.35 13.29 154.10 13.27L151.94 10.22L153.99 7.39C154.27 7.38 154.42 7.38 154.42 7.38C154.60 7.36 154.70 7.28 154.70 7.13L154.70 6.86L154.38 6.86L153.76 6.86L153.69 6.86L152.63 6.86L152.63 7.13C152.63 7.28 152.73 7.36 152.91 7.38C152.92 7.38 153.05 7.38 153.27 7.39L151.65 9.70C151.59 9.79 151.54 9.87 151.52 9.95L149.76 7.39C149.95 7.38 150.07 7.38 150.09 7.38C150.28 7.36 150.37 7.28 150.37 7.13L150.37 6.86L149.31 6.86L149.27 6.86L149.25 6.86L148.62 6.86L148.30 6.86L148.30 7.13C148.30 7.28 148.40 7.36 148.58 7.38C148.58 7.38 148.74 7.38 149.02 7.39L151.05 10.25L148.90 13.27C148.65 13.29 148.54 13.29 148.53 13.29C148.34 13.30 148.25 13.38 148.25 13.54L148.25 13.82L148.89 13.82L149.25 13.82L150.32 13.82L150.32 13.54C150.32 13.38 150.22 13.30 150.04 13.29C150.02 13.29 149.88 13.29 149.62 13.27L151.38 10.79C151.42 10.72 151.45 10.67 151.48 10.57L153.36 13.27C153.12 13.29 152.98 13.29 152.96 13.29C152.78 13.30 152.70 13.38 152.70 13.54L152.70 13.82L153.75 13.82L154.13 13.82L154.76 13.82L154.76 13.54C154.76 13.38 154.67 13.30 154.49 13.29ZM168.88 7.63C168.41 7.04 167.73 6.73 166.88 6.73C166.36 6.73 165.91 6.86 165.49 7.11C165.09 7.36 164.72 7.69 164.42 8.11L164.35 7.03C164.35 6.96 164.33 6.92 164.29 6.89C164.25 6.86 164.19 6.86 164.14 6.86L163.77 6.86L162.76 6.86L162.76 7.13C162.76 7.28 162.86 7.36 163.04 7.38L163.11 7.38C163.14 7.38 163.18 7.39 163.23 7.39L163.44 7.39C163.53 7.39 163.65 7.41 163.77 7.41L163.77 15.72C163.62 15.72 163.48 15.75 163.37 15.75L163.13 15.75L163.04 15.75C162.86 15.76 162.76 15.85 162.76 16.00L162.76 16.28L163.77 16.28L164.44 16.28L165.45 16.28L165.45 16.00C165.45 15.85 165.35 15.76 165.17 15.75L165.10 15.75L164.99 15.75C164.95 15.75 164.88 15.74 164.78 15.74C164.68 15.74 164.57 15.72 164.44 15.72L164.44 12.88C164.70 13.22 164.99 13.48 165.34 13.65C165.69 13.82 166.10 13.90 166.57 13.90C167.06 13.90 167.48 13.80 167.86 13.62C168.24 13.44 168.56 13.19 168.81 12.87C169.06 12.54 169.27 12.15 169.40 11.72C169.54 11.28 169.60 10.79 169.60 10.29C169.60 9.10 169.36 8.22 168.88 7.63ZM168.76 11.55C168.66 11.93 168.49 12.25 168.28 12.53C168.07 12.81 167.82 13.01 167.51 13.16C167.20 13.31 166.84 13.38 166.43 13.38C166.01 13.38 165.65 13.30 165.33 13.13C165.00 12.96 164.71 12.70 164.44 12.29L164.44 8.64C164.74 8.20 165.06 7.87 165.44 7.63C165.82 7.39 166.24 7.28 166.70 7.28C167.41 7.28 167.96 7.52 168.34 8.01C168.71 8.50 168.91 9.25 168.91 10.29C168.91 10.75 168.87 11.17 168.76 11.55ZM180.82 6.73C180.33 6.73 179.89 6.83 179.49 7.00C179.10 7.17 178.78 7.41 178.51 7.71C178.25 8.02 178.04 8.39 177.90 8.81C177.76 9.23 177.67 9.69 177.67 10.19C177.67 10.78 177.76 11.31 177.91 11.77C178.07 12.24 178.28 12.61 178.56 12.94C178.84 13.26 179.17 13.50 179.56 13.66C179.96 13.83 180.39 13.90 180.87 13.90C181.13 13.90 181.40 13.89 181.65 13.83C181.90 13.78 182.15 13.71 182.38 13.62C182.60 13.54 182.81 13.44 182.99 13.31C183.18 13.19 183.33 13.06 183.44 12.92L183.26 12.70C183.23 12.66 183.18 12.63 183.12 12.63C183.08 12.63 182.99 12.66 182.90 12.74C182.80 12.82 182.66 12.91 182.48 13.01C182.31 13.10 182.08 13.17 181.83 13.26C181.58 13.34 181.27 13.38 180.92 13.38C180.53 13.38 180.18 13.31 179.86 13.17C179.54 13.03 179.27 12.84 179.05 12.57C178.82 12.31 178.65 11.97 178.53 11.58C178.40 11.19 178.35 10.71 178.35 10.19L178.35 10.07L183.37 10.07C183.44 10.07 183.48 10.05 183.51 10.01C183.54 9.97 183.57 9.90 183.57 9.80C183.57 9.31 183.50 8.88 183.36 8.50C183.22 8.12 183.04 7.78 182.78 7.53C182.55 7.28 182.25 7.08 181.92 6.94C181.58 6.80 181.22 6.73 180.82 6.73ZM180.84 7.24C181.16 7.24 181.44 7.29 181.71 7.41C181.97 7.52 182.20 7.67 182.38 7.88C182.56 8.09 182.71 8.33 182.81 8.62C182.91 8.92 182.97 9.25 182.97 9.63L178.37 9.63C178.42 9.27 178.50 8.93 178.63 8.64C178.75 8.34 178.92 8.09 179.13 7.88C179.34 7.67 179.59 7.52 179.87 7.41C180.15 7.29 180.47 7.24 180.84 7.24ZM196.32 6.80C196.14 6.76 195.96 6.73 195.75 6.73C195.20 6.73 194.74 6.89 194.36 7.21C193.98 7.53 193.69 7.98 193.47 8.54L193.41 7.07C193.41 6.99 193.38 6.93 193.35 6.90C193.33 6.87 193.27 6.86 193.19 6.86L192.84 6.86L192.84 6.86L191.83 6.86L191.83 7.13C191.83 7.31 191.93 7.36 192.09 7.38C192.18 7.38 192.26 7.38 192.84 7.41L192.84 13.26C192.26 13.29 192.18 13.29 192.09 13.29C191.93 13.30 191.83 13.36 191.83 13.54L191.83 13.82L192.84 13.82L193.49 13.82L193.49 13.82L194.50 13.82L194.50 13.54C194.50 13.36 194.40 13.30 194.24 13.29C194.15 13.29 194.07 13.29 193.49 13.26L193.49 9.30C193.70 8.68 193.98 8.20 194.32 7.88C194.66 7.56 195.09 7.39 195.62 7.39C195.76 7.39 195.89 7.41 196 7.42C196.11 7.43 196.22 7.45 196.29 7.48C196.38 7.50 196.42 7.53 196.48 7.55C196.53 7.56 196.57 7.57 196.60 7.57C196.69 7.57 196.73 7.53 196.74 7.46L196.83 7.00C196.67 6.92 196.50 6.85 196.32 6.80ZM205.81 4.89C205.87 4.94 205.94 4.98 206.01 5.01C206.08 5.04 206.16 5.07 206.25 5.07C206.33 5.07 206.42 5.04 206.49 5.01C206.56 4.98 206.63 4.94 206.68 4.89C206.74 4.83 206.79 4.76 206.82 4.69C206.85 4.62 206.88 4.54 206.88 4.45C206.88 4.37 206.85 4.30 206.82 4.21C206.79 4.14 206.74 4.07 206.68 4.02C206.63 3.96 206.56 3.91 206.49 3.88C206.42 3.85 206.33 3.84 206.25 3.84C206.16 3.84 206.08 3.85 206.01 3.88C205.94 3.91 205.87 3.96 205.81 4.02C205.76 4.07 205.72 4.14 205.69 4.21C205.66 4.28 205.63 4.37 205.63 4.45C205.63 4.54 205.66 4.62 205.69 4.69C205.72 4.76 205.76 4.83 205.81 4.89ZM207.31 13.29L207.24 13.29L207.13 13.29C207.09 13.29 207.02 13.27 206.92 13.27C206.82 13.27 206.71 13.26 206.58 13.26L206.58 6.85L205.91 6.85L204.90 6.85L204.90 7.13C204.90 7.28 205.00 7.36 205.18 7.38L205.25 7.38C205.28 7.38 205.32 7.39 205.37 7.39L205.58 7.39C205.67 7.39 205.79 7.41 205.91 7.41L205.91 13.26C205.76 13.26 205.62 13.29 205.51 13.29L205.27 13.29L205.18 13.29C205.00 13.30 204.90 13.38 204.90 13.54L204.90 13.82L205.91 13.82L206.58 13.82L207.59 13.82L207.59 13.54C207.59 13.38 207.49 13.30 207.31 13.29ZM218.83 6.73C218.34 6.73 217.90 6.83 217.50 7.00C217.11 7.17 216.79 7.41 216.52 7.71C216.26 8.02 216.05 8.39 215.91 8.81C215.77 9.23 215.68 9.69 215.68 10.19C215.68 10.78 215.77 11.31 215.92 11.77C216.08 12.24 216.29 12.61 216.57 12.94C216.85 13.26 217.18 13.50 217.57 13.66C217.97 13.83 218.40 13.90 218.88 13.90C219.14 13.90 219.41 13.89 219.66 13.83C219.91 13.78 220.16 13.71 220.39 13.62C220.61 13.54 220.82 13.44 221.00 13.31C221.19 13.19 221.34 13.06 221.45 12.92L221.27 12.70C221.24 12.66 221.19 12.63 221.13 12.63C221.09 12.63 221.00 12.66 220.91 12.74C220.81 12.82 220.67 12.91 220.49 13.01C220.32 13.10 220.09 13.17 219.84 13.26C219.59 13.34 219.28 13.38 218.93 13.38C218.54 13.38 218.19 13.31 217.87 13.17C217.55 13.03 217.28 12.84 217.06 12.57C216.83 12.31 216.66 11.97 216.54 11.58C216.41 11.19 216.36 10.71 216.36 10.19L216.36 10.07L221.38 10.07C221.45 10.07 221.49 10.05 221.52 10.01C221.55 9.97 221.58 9.90 221.58 9.80C221.58 9.31 221.51 8.88 221.37 8.50C221.23 8.12 221.05 7.78 220.79 7.53C220.56 7.28 220.26 7.08 219.93 6.94C219.59 6.80 219.23 6.73 218.83 6.73ZM218.85 7.24C219.17 7.24 219.45 7.29 219.72 7.41C219.98 7.52 220.21 7.67 220.39 7.88C220.57 8.09 220.72 8.33 220.82 8.62C220.92 8.92 220.98 9.25 220.98 9.63L216.38 9.63C216.43 9.27 216.51 8.93 216.64 8.64C216.76 8.34 216.93 8.09 217.14 7.88C217.35 7.67 217.60 7.52 217.88 7.41C218.16 7.29 218.48 7.24 218.85 7.24ZM237.05 13.29L236.98 13.29L236.87 13.29C236.82 13.29 236.75 13.27 236.66 13.27C236.56 13.27 236.45 13.26 236.32 13.26L236.32 9.37C236.32 8.96 236.26 8.60 236.17 8.27C236.07 7.95 235.93 7.67 235.73 7.45C235.54 7.22 235.30 7.06 235.00 6.93C234.71 6.80 234.37 6.75 234.00 6.75C233.48 6.75 233.00 6.87 232.58 7.11C232.16 7.36 231.80 7.67 231.48 8.08L231.42 7.03C231.41 6.92 231.34 6.86 231.21 6.86L230.85 6.86L229.84 6.86L229.84 7.13C229.84 7.28 229.92 7.36 230.10 7.38L230.19 7.38C230.22 7.38 230.24 7.39 230.29 7.39L230.50 7.39C230.59 7.39 230.72 7.41 230.85 7.41L230.85 13.26C230.68 13.26 230.54 13.29 230.43 13.29L230.20 13.29L230.10 13.29C229.92 13.30 229.84 13.38 229.84 13.54L229.84 13.82L230.85 13.82L231.50 13.82L232.51 13.82L232.51 13.54C232.51 13.38 232.43 13.30 232.25 13.29L232.16 13.29L232.06 13.29C232.02 13.29 231.95 13.27 231.85 13.27C231.76 13.27 231.63 13.26 231.50 13.26L231.50 8.60C231.81 8.19 232.16 7.87 232.55 7.63C232.95 7.39 233.37 7.28 233.83 7.28C234.44 7.28 234.91 7.46 235.20 7.83C235.49 8.20 235.65 8.71 235.65 9.37L235.65 13.82L236.32 13.82L237.33 13.82L237.33 13.54C237.33 13.38 237.23 13.30 237.05 13.29ZM250.64 12.70C250.61 12.66 250.56 12.63 250.50 12.63C250.45 12.63 250.39 12.66 250.31 12.74C250.22 12.82 250.10 12.91 249.96 13.01C249.82 13.10 249.62 13.17 249.40 13.26C249.17 13.34 248.88 13.38 248.54 13.38C248.18 13.38 247.84 13.31 247.55 13.17C247.25 13.03 247.00 12.85 246.79 12.59C246.58 12.33 246.41 12.01 246.30 11.63C246.19 11.26 246.13 10.82 246.13 10.33C246.13 9.86 246.19 9.44 246.30 9.06C246.41 8.68 246.58 8.36 246.79 8.09C247.00 7.83 247.27 7.62 247.58 7.48C247.88 7.34 248.23 7.27 248.64 7.27C248.99 7.27 249.38 7.35 249.83 7.50C249.84 7.69 249.84 7.87 249.86 8.04C249.87 8.20 249.89 8.33 249.90 8.43C249.91 8.53 249.91 8.58 249.91 8.60C249.93 8.82 250.03 8.93 250.22 8.93L250.56 8.93L250.56 7.18L250.19 7.07C249.96 7.00 249.66 6.92 249.34 6.85C249.02 6.78 248.77 6.75 248.60 6.75C248.09 6.75 247.66 6.82 247.27 7.00C246.88 7.18 246.54 7.42 246.27 7.74C246.01 8.06 245.81 8.44 245.67 8.88C245.53 9.31 245.45 9.80 245.45 10.33C245.45 10.89 245.52 11.40 245.67 11.84C245.81 12.29 246.02 12.66 246.29 12.96C246.55 13.27 246.88 13.51 247.24 13.66C247.60 13.83 248.00 13.92 248.44 13.92C248.71 13.92 248.96 13.89 249.20 13.83C249.44 13.78 249.66 13.72 249.87 13.64C250.08 13.55 250.25 13.44 250.42 13.31C250.59 13.19 250.71 13.06 250.82 12.92ZM262.02 6.73C261.53 6.73 261.09 6.83 260.69 7.00C260.30 7.17 259.98 7.41 259.71 7.71C259.45 8.02 259.24 8.39 259.10 8.81C258.96 9.23 258.87 9.69 258.87 10.19C258.87 10.78 258.96 11.31 259.11 11.77C259.27 12.24 259.48 12.61 259.76 12.94C260.04 13.26 260.37 13.50 260.76 13.66C261.16 13.83 261.59 13.90 262.07 13.90C262.33 13.90 262.60 13.89 262.85 13.83C263.10 13.78 263.35 13.71 263.58 13.62C263.80 13.54 264.01 13.44 264.19 13.31C264.38 13.19 264.53 13.06 264.64 12.92L264.46 12.70C264.43 12.66 264.38 12.63 264.32 12.63C264.28 12.63 264.19 12.66 264.10 12.74C264.00 12.82 263.86 12.91 263.68 13.01C263.51 13.10 263.28 13.17 263.03 13.26C262.78 13.34 262.47 13.38 262.12 13.38C261.73 13.38 261.38 13.31 261.06 13.17C260.74 13.03 260.47 12.84 260.25 12.57C260.02 12.31 259.85 11.97 259.73 11.58C259.60 11.19 259.55 10.71 259.55 10.19L259.55 10.07L264.57 10.07C264.64 10.07 264.68 10.05 264.71 10.01C264.74 9.97 264.77 9.90 264.77 9.80C264.77 9.31 264.70 8.88 264.56 8.50C264.42 8.12 264.24 7.78 263.98 7.53C263.75 7.28 263.45 7.08 263.12 6.94C262.78 6.80 262.42 6.73 262.02 6.73ZM262.04 7.24C262.36 7.24 262.64 7.29 262.91 7.41C263.17 7.52 263.40 7.67 263.58 7.88C263.76 8.09 263.91 8.33 264.01 8.62C264.11 8.92 264.17 9.25 264.17 9.63L259.57 9.63C259.62 9.27 259.70 8.93 259.83 8.64C259.95 8.34 260.12 8.09 260.33 7.88C260.54 7.67 260.79 7.52 261.07 7.41C261.35 7.29 261.67 7.24 262.04 7.24Z"></path></g></svg>